<?xml version="1.0" encoding="UTF-8"?>
<svg xmlns="http://www.w3.org/2000/svg" xmlns:xlink="http://www.w3.org/1999/xlink" width="594.95996" height="841.91998" viewBox="0 0 594.95996 841.91998">
<defs>
<clipPath id="clip-0">
<path clip-rule="nonzero" d="M 78 631.5 L 518 631.5 L 518 841.921875 L 78 841.921875 Z M 78 631.5 "/>
</clipPath>
</defs>
<rect x="-59.495996" y="-84.191998" width="713.951952" height="1010.303976" fill="rgb(100%, 100%, 100%)" fill-opacity="1"/>
<path fill-rule="nonzero" fill="rgb(0.389099%, 48.629761%, 2.349854%)" fill-opacity="0.077" d="M 78.8125 23.246094 C 77.96875 15.078125 78.019531 6.894531 78.960938 -1.121094 C 79.273438 -3.816406 79.691406 -6.46875 80.207031 -9.066406 C 80.839844 -12.273438 81.625 -15.429688 82.566406 -18.515625 C 83.042969 -20.074219 83.554688 -21.605469 84.105469 -23.113281 C 83.238281 -31.492188 83.929688 -39.855469 86.132812 -47.675781 C 90.128906 -61.703125 98.621094 -73.296875 110.058594 -80.34375 C 117.21875 -84.757812 125.28125 -87.28125 133.667969 -87.734375 L 421.527344 -101.332031 C 434.332031 -101.96875 447.304688 -98.789062 459.125 -92.109375 C 460.875 -91.121094 462.585938 -90.0625 464.261719 -88.929688 C 467.90625 -86.472656 471.375 -83.6875 474.636719 -80.601562 C 479.050781 -76.429688 483.046875 -71.722656 486.535156 -66.582031 C 494.734375 -54.539062 499.871094 -40.390625 501.347656 -25.773438 C 509.78125 -12.265625 515.570312 4.121094 517.386719 21.9375 C 519.679688 44.414062 515.261719 65.230469 506.152344 81.257812 C 504.253906 84.605469 502.121094 87.773438 499.777344 90.730469 C 497.460938 93.660156 494.929688 96.359375 492.203125 98.804688 C 490.023438 100.765625 487.71875 102.550781 485.300781 104.152344 C 484.292969 104.816406 483.273438 105.441406 482.238281 106.03125 C 481.324219 106.554688 480.398438 107.046875 479.460938 107.515625 C 478.332031 108.074219 477.1875 108.59375 476.019531 109.070312 C 474.855469 109.546875 473.699219 109.972656 472.554688 110.34375 C 470.875 110.902344 469.152344 111.371094 467.394531 111.753906 C 465.9375 112.066406 464.472656 112.308594 463.003906 112.511719 C 461.835938 112.660156 460.652344 112.773438 459.453125 112.847656 L 458.804688 112.878906 C 457.484375 112.941406 456.167969 112.941406 454.855469 112.90625 C 454.75 113.21875 454.632812 113.539062 454.527344 113.851562 C 454.121094 114.984375 453.699219 116.117188 453.265625 117.230469 L 453.269531 117.257812 C 453.195312 117.449219 453.125 117.644531 453.046875 117.832031 C 452.699219 118.738281 452.332031 119.636719 451.953125 120.53125 C 451.78125 120.957031 451.609375 121.355469 451.433594 121.761719 C 451.394531 121.859375 451.355469 121.953125 451.308594 122.054688 C 451.128906 122.480469 450.945312 122.90625 450.757812 123.335938 C 449.824219 125.4375 448.839844 127.515625 447.804688 129.558594 C 447.714844 129.734375 447.632812 129.90625 447.542969 130.078125 C 447.378906 130.394531 447.234375 130.707031 447.050781 131.019531 C 446.621094 131.847656 446.175781 132.679688 445.726562 133.5 C 445.414062 134.082031 445.101562 134.660156 444.753906 135.222656 C 443.933594 136.664062 443.085938 138.101562 442.214844 139.523438 C 441.34375 140.945312 440.417969 142.378906 439.476562 143.78125 C 439.347656 143.976562 439.214844 144.164062 439.082031 144.359375 L 437.695312 146.371094 C 437.625 146.464844 437.566406 146.550781 437.503906 146.640625 C 437.335938 146.878906 437.179688 147.113281 436.996094 147.347656 C 436.25 148.394531 435.480469 149.433594 434.707031 150.457031 C 430.746094 155.652344 426.460938 160.523438 421.875 165.03125 C 421.695312 165.21875 421.515625 165.394531 421.335938 165.566406 C 420.476562 166.414062 419.597656 167.246094 418.722656 168.0625 C 413.890625 172.546875 408.785156 176.660156 403.433594 180.371094 C 403.066406 180.640625 402.691406 180.898438 402.3125 181.152344 C 397.507812 184.429688 392.527344 187.398438 387.390625 190.039062 C 384.59375 191.480469 381.734375 192.835938 378.816406 194.109375 C 376.882812 194.941406 374.9375 195.738281 372.960938 196.476562 C 369.90625 197.644531 366.800781 198.714844 363.648438 199.683594 C 354.355469 202.539062 344.804688 204.484375 335.097656 205.492188 C 332.148438 205.808594 329.160156 206.039062 326.128906 206.179688 C 311.5 206.894531 296.714844 205.511719 282.128906 202.070312 C 281.957031 201.828125 281.738281 201.632812 281.488281 201.507812 C 281.238281 201.382812 280.96875 201.324219 280.703125 201.347656 L 279.457031 201.40625 C 278.898438 201.269531 278.34375 201.121094 277.785156 200.972656 C 274.664062 200.136719 271.574219 199.210938 268.523438 198.195312 L 267.75 197.929688 C 260.210938 195.378906 252.804688 192.234375 245.59375 188.519531 C 239.09375 185.179688 232.777344 181.363281 226.679688 177.097656 C 225.742188 176.441406 224.816406 175.773438 223.898438 175.101562 C 222.953125 175.890625 221.984375 176.648438 220.996094 177.367188 C 217.175781 180.171875 213.050781 182.453125 208.695312 184.164062 C 199.59375 187.742188 189.667969 188.648438 179.824219 186.808594 C 167.199219 184.457031 155.296875 177.699219 145.230469 167.765625 C 141.128906 163.710938 137.386719 159.222656 134.0625 154.371094 C 133.820312 154.023438 133.578125 153.671875 133.347656 153.3125 C 130.480469 149 127.929688 144.449219 125.722656 139.707031 C 125.640625 139.535156 125.5625 139.367188 125.488281 139.195312 C 123.445312 134.757812 121.695312 130.175781 120.253906 125.492188 C 120.1875 125.257812 120.109375 125.019531 120.039062 124.78125 C 118.675781 120.246094 117.59375 115.632812 116.800781 110.976562 C 116.78125 110.808594 116.765625 110.636719 116.71875 110.46875 C 116.316406 108.058594 115.988281 105.621094 115.734375 103.148438 C 115.507812 100.945312 115.351562 98.75 115.253906 96.578125 C 115.230469 96.339844 115.234375 96.085938 115.226562 95.84375 C 115.195312 95.210938 115.179688 94.59375 115.164062 93.953125 C 112.070312 91.523438 109.136719 88.84375 106.382812 85.9375 C 105.167969 84.664062 103.984375 83.335938 102.828125 81.960938 C 99.304688 77.773438 96.125 73.25 93.328125 68.449219 C 85.714844 55.433594 80.515625 39.976562 78.8125 23.246094 Z M 78.8125 23.246094 "/>
<g clip-path="url(#clip-0)">
<path fill-rule="nonzero" fill="rgb(0.389099%, 48.629761%, 2.349854%)" fill-opacity="0.099" d="M 517.300781 816.730469 C 518.066406 824.902344 517.945312 833.078125 516.933594 841.074219 C 516.59375 843.765625 516.152344 846.410156 515.613281 849.003906 C 514.953125 852.203125 514.136719 855.347656 513.171875 858.421875 C 512.683594 859.976562 512.15625 861.5 511.589844 863.003906 C 512.382812 871.378906 511.617188 879.730469 509.34375 887.523438 C 505.222656 901.503906 496.628906 913.011719 485.128906 919.949219 C 477.925781 924.296875 469.84375 926.742188 461.453125 927.121094 L 173.492188 938.132812 C 160.683594 938.65625 147.738281 935.359375 135.980469 928.582031 C 134.242188 927.578125 132.539062 926.503906 130.871094 925.359375 C 127.25 922.871094 123.804688 920.058594 120.574219 916.949219 C 116.195312 912.738281 112.242188 908 108.800781 902.832031 C 100.710938 890.730469 95.703125 876.546875 94.355469 861.929688 C 86.039062 848.359375 80.398438 831.933594 78.742188 814.117188 C 76.652344 791.640625 81.253906 770.886719 90.507812 754.953125 C 92.4375 751.625 94.597656 748.480469 96.96875 745.546875 C 99.308594 742.640625 101.863281 739.964844 104.613281 737.546875 C 106.808594 735.605469 109.132812 733.839844 111.5625 732.265625 C 112.578125 731.609375 113.597656 730.992188 114.644531 730.414062 C 115.558594 729.898438 116.488281 729.417969 117.433594 728.960938 C 118.566406 728.410156 119.714844 727.902344 120.886719 727.433594 C 122.054688 726.96875 123.214844 726.554688 124.363281 726.191406 C 126.046875 725.652344 127.773438 725.199219 129.535156 724.832031 C 130.996094 724.53125 132.460938 724.304688 133.933594 724.113281 C 135.101562 723.972656 136.289062 723.871094 137.484375 723.808594 L 138.132812 723.785156 C 139.453125 723.734375 140.773438 723.742188 142.082031 723.792969 C 142.191406 723.480469 142.308594 723.160156 142.417969 722.847656 C 142.835938 721.71875 143.269531 720.59375 143.710938 719.484375 L 143.707031 719.457031 C 143.78125 719.265625 143.859375 719.074219 143.9375 718.886719 C 144.292969 717.984375 144.667969 717.089844 145.054688 716.203125 C 145.230469 715.777344 145.402344 715.378906 145.585938 714.972656 C 145.625 714.875 145.664062 714.78125 145.710938 714.683594 C 145.894531 714.257812 146.082031 713.835938 146.273438 713.410156 C 147.226562 711.316406 148.230469 709.25 149.28125 707.214844 C 149.375 707.042969 149.457031 706.871094 149.550781 706.699219 C 149.714844 706.386719 149.863281 706.074219 150.050781 705.761719 C 150.488281 704.9375 150.9375 704.113281 151.394531 703.296875 C 151.714844 702.71875 152.03125 702.144531 152.382812 701.585938 C 153.214844 700.152344 154.078125 698.722656 154.960938 697.3125 C 155.847656 695.898438 156.785156 694.476562 157.738281 693.082031 C 157.871094 692.890625 158 692.699219 158.140625 692.507812 L 159.542969 690.511719 C 159.613281 690.417969 159.671875 690.332031 159.738281 690.246094 C 159.90625 690.007812 160.066406 689.773438 160.25 689.539062 C 161.003906 688.5 161.78125 687.472656 162.566406 686.457031 C 166.574219 681.296875 170.902344 676.472656 175.527344 672.007812 C 175.707031 671.824219 175.890625 671.652344 176.074219 671.476562 C 176.941406 670.640625 177.824219 669.816406 178.710938 669.007812 C 183.578125 664.570312 188.722656 660.507812 194.105469 656.847656 C 194.472656 656.582031 194.851562 656.328125 195.234375 656.078125 C 200.066406 652.84375 205.074219 649.925781 210.234375 647.332031 C 213.042969 645.917969 215.914062 644.589844 218.84375 643.34375 C 220.785156 642.527344 222.738281 641.746094 224.722656 641.027344 C 227.785156 639.890625 230.902344 638.847656 234.0625 637.90625 C 243.378906 635.136719 252.949219 633.28125 262.660156 632.359375 C 265.613281 632.070312 268.605469 631.867188 271.636719 631.753906 C 286.269531 631.171875 301.042969 632.683594 315.597656 636.253906 C 315.765625 636.496094 315.984375 636.691406 316.234375 636.820312 C 316.480469 636.949219 316.75 637.007812 317.015625 636.988281 L 318.261719 636.941406 C 318.816406 637.082031 319.371094 637.234375 319.929688 637.386719 C 323.042969 638.25 326.121094 639.203125 329.167969 640.246094 L 329.9375 640.515625 C 337.453125 643.132812 344.832031 646.34375 352.007812 650.117188 C 358.476562 653.511719 364.761719 657.382812 370.816406 661.695312 C 371.75 662.363281 372.671875 663.035156 373.582031 663.71875 C 374.535156 662.9375 375.511719 662.191406 376.503906 661.480469 C 380.347656 658.710938 384.496094 656.46875 388.863281 654.796875 C 398 651.304688 407.929688 650.488281 417.757812 652.414062 C 430.359375 654.878906 442.199219 661.734375 452.179688 671.75 C 456.246094 675.835938 459.945312 680.355469 463.226562 685.230469 C 463.464844 685.582031 463.703125 685.9375 463.933594 686.296875 C 466.761719 690.628906 469.269531 695.199219 471.433594 699.957031 C 471.511719 700.128906 471.589844 700.296875 471.664062 700.46875 C 473.667969 704.921875 475.375 709.515625 476.773438 714.207031 C 476.839844 714.441406 476.914062 714.683594 476.980469 714.921875 C 478.304688 719.464844 479.347656 724.082031 480.097656 728.742188 C 480.113281 728.910156 480.128906 729.078125 480.175781 729.25 C 480.554688 731.660156 480.863281 734.101562 481.09375 736.570312 C 481.300781 738.777344 481.4375 740.96875 481.515625 743.140625 C 481.539062 743.378906 481.53125 743.632812 481.535156 743.875 C 481.5625 744.507812 481.570312 745.125 481.582031 745.765625 C 484.652344 748.21875 487.5625 750.921875 490.289062 753.851562 C 491.496094 755.132812 492.667969 756.46875 493.8125 757.859375 C 497.296875 762.070312 500.433594 766.621094 503.1875 771.441406 C 510.6875 784.511719 515.746094 800 517.300781 816.730469 Z M 517.300781 816.730469 "/>
</g>
</svg>
